<svg width="32" height="32" viewBox="0 0 32 32" fill="none" xmlns="http://www.w3.org/2000/svg">
  <defs>
    <linearGradient id="bg" x1="0%" y1="0%" x2="100%" y2="100%">
      <stop offset="0%" style="stop-color:#8B5CF6"/>
      <stop offset="100%" style="stop-color:#7C3AED"/>
    </linearGradient>
  </defs>
  <rect width="32" height="32" rx="8" fill="url(#bg)"/>
  <path d="M8 12C8 10.8954 8.89543 10 10 10H14C15.1046 10 16 10.8954 16 12V13H10C8.89543 13 8 12.1046 8 11V12Z" fill="white" fill-opacity="0.9"/>
  <rect x="8" y="14" width="8" height="2" rx="1" fill="white" fill-opacity="0.7"/>
  <rect x="8" y="17" width="6" height="2" rx="1" fill="white" fill-opacity="0.5"/>
  <path d="M18 11C18 9.89543 18.8954 9 20 9H22C23.1046 9 24 9.89543 24 11V12H20C18.8954 12 18 11.1046 18 10V11Z" fill="white" fill-opacity="0.9"/>
  <rect x="18" y="13" width="6" height="2" rx="1" fill="white" fill-opacity="0.7"/>
  <rect x="18" y="16" width="4" height="2" rx="1" fill="white" fill-opacity="0.5"/>
  <rect x="18" y="19" width="6" height="2" rx="1" fill="white" fill-opacity="0.3"/>
  <circle cx="23" cy="23" r="5" fill="#10B981"/>
  <path d="M21 23L22.5 24.5L25 21.5" stroke="white" stroke-width="1.5" stroke-linecap="round" stroke-linejoin="round"/>
</svg>
